PathFileType	4	(X/Y/Z)	C:\Users\Basilio\Documents\Thesis Gigler\squatting_fais\c3dfiles\038\SJ_pre5\markers_experimental.trc
DataRate	CameraRate	NumFrames	NumMarkers	Units	OrigDataRate	OrigDataStartFrame	OrigNumFrames
200.000000	200.000000	4	61	mm	200.000000	755	1510
Frame#	Time	FHD			LBHD			RBHD			C7			T10			CLAV			LSHO			LUUPA			LMUPA			LDUPA			LLEP			LMEP			LRAD			LUL			LRFIN			RSHO			RUPA1			RMUPA			RDUPA			RLEP			RMEP			RRAD			RUL			RUFIN			LASI			RASI			USACR			LSACR			RSACR			LTHI1			LTHI2			LTHI3			LTHI4			LLFC			LMFC			LTIB1			LTIB2			LTIB3			LTIB4			LLMAL			LMMAL			LHEE			LMT1			LMT2			LMT5			RTHI			RTHI2			RTHI3			RTHI4			RLFC			RMFC			RTIB1			RTIB2			RTIB3			RTIB4			RLMAL			RMMAL			RHEE			RMT1			RMT2			RMT5			
		X1	Y1	Z1	X2	Y2	Z2	X3	Y3	Z3	X4	Y4	Z4	X5	Y5	Z5	X6	Y6	Z6	X7	Y7	Z7	X8	Y8	Z8	X9	Y9	Z9	X10	Y10	Z10	X11	Y11	Z11	X12	Y12	Z12	X13	Y13	Z13	X14	Y14	Z14	X15	Y15	Z15	X16	Y16	Z16	X17	Y17	Z17	X18	Y18	Z18	X19	Y19	Z19	X20	Y20	Z20	X21	Y21	Z21	X22	Y22	Z22	X23	Y23	Z23	X24	Y24	Z24	X25	Y25	Z25	X26	Y26	Z26	X27	Y27	Z27	X28	Y28	Z28	X29	Y29	Z29	X30	Y30	Z30	X31	Y31	Z31	X32	Y32	Z32	X33	Y33	Z33	X34	Y34	Z34	X35	Y35	Z35	X36	Y36	Z36	X37	Y37	Z37	X38	Y38	Z38	X39	Y39	Z39	X40	Y40	Z40	X41	Y41	Z41	X42	Y42	Z42	X43	Y43	Z43	X44	Y44	Z44	X45	Y45	Z45	X46	Y46	Z46	X47	Y47	Z47	X48	Y48	Z48	X49	Y49	Z49	X50	Y50	Z50	X51	Y51	Z51	X52	Y52	Z52	X53	Y53	Z53	X54	Y54	Z54	X55	Y55	Z55	X56	Y56	Z56	X57	Y57	Z57	X58	Y58	Z58	X59	Y59	Z59	X60	Y60	Z60	X61	Y61	Z61	

756	3.775	-101.9810562133789	1298.111328125	-911.5635986328127	-229.5265655517579	1191.6552734375	-964.9898071289065	-214.0822143554688	1190.394287109375	-819.6062011718752	-254.3258209228516	1095.248046875	-885.126403808594	-437.6080932617189	892.6170043945315	-875.3745117187502	-142.0628356933594	999.5848388671877	-896.1851196289065	-147.6069488525391	1056.17919921875	-1052.678955078125	-211.6303253173829	920.488464355469	-1239.674194335938	-206.6725463867188	876.2718505859377	-1219.150146484375	-230.8697967529297	861.6504516601565	-1270.348266601563	-260.9169921875001	805.5905761718752	-1286.898681640625	-337.5031127929688	839.9697875976565	-1304.6171875	-449.5301513671876	709.4066772460939	-1074.874389648438	-402.7470703125001	656.0908203125001	-1096.480834960938	-446.9899291992189	686.1835327148439	-998.8449707031252	-132.3344421386719	1039.707885742188	-737.9903564453126	-173.2305908203125	912.132263183594	-554.0931396484376	-186.0481262207032	866.6761474609377	-563.8768920898439	-198.6451873779297	867.4906005859377	-505.4125366210939	-234.1224670410157	808.3618164062502	-472.982879638672	-305.3558654785157	849.331726074219	-449.9712524414064	-424.9409179687501	692.1110839843751	-641.4536743164064	-376.4625244140626	638.7848510742189	-634.8033447265626	-414.8635559082032	695.4002075195314	-714.5518188476564	-434.0526428222657	676.4572143554689	-985.8552856445315	-419.2086486816407	681.7136230468751	-743.6754150390626	-558.4909057617189	784.7210693359377	-861.111755371094	-588.8885498046876	765.3484497070314	-885.9141235351565	-581.6775512695314	766.0708007812501	-828.7630615234377	-387.5835876464845	565.8327026367189	-1153.012939453125	-309.1466979980469	551.7643432617189	-1188.885498046875	-277.8728027343751	581.7285156250001	-1165.538208007813	-286.1991271972657	495.9555969238282	-1201.881225585938	-245.792465209961	455.9990539550782	-1208.140625	-204.285385131836	443.8156738281251	-1107.02978515625	-235.4317321777344	281.1728820800782	-1128.512451171875	-309.5960693359376	255.5541076660157	-1171.872680664063	-273.4350280761719	240.7661590576172	-1150.720458984375	-304.0293579101563	177.0032501220703	-1103.125366210938	-431.7646484375001	82.81200408935548	-1086.81640625	-374.2987365722657	97.65033721923831	-1026.020629882813	-468.9294433593751	44.94487762451173	-1020.264465332031	-267.0963439941407	46.59002304077149	-1083.314697265625	-277.3246765136719	50.29892349243165	-1132.84326171875	-330.7560424804688	31.26273155212403	-1165.586791992188	-387.4021911621095	548.5891723632814	-628.2839965820314	-324.1405944824219	542.6062622070314	-608.7611694335939	-301.7279663085938	568.9366455078126	-611.5535888671876	-279.8002319335938	467.7487792968751	-607.6999511718751	-192.4170379638672	411.4615478515626	-600.4638061523439	-171.8326721191407	414.7222595214845	-710.9206542968751	-212.1357574462891	252.9813842773438	-647.6972656250001	-326.5039978027344	221.8728942871094	-637.2459716796876	-283.1484375000001	203.5714263916016	-643.7200317382814	-292.5813293457032	157.1934967041016	-677.9758911132814	-414.840545654297	88.56560516357423	-680.1317749023439	-367.0206604003907	86.62880706787111	-751.6397705078126	-464.3894042968751	41.33706665039063	-758.9598999023439	-262.7097778320313	46.42236328125001	-674.3865966796876	-280.7062377929688	52.83547592163087	-631.5706787109376	-336.9753417968751	35.99784469604493	-602.7260131835939	
757	3.78	-101.8772888183594	1297.982666015625	-911.6016845703127	-229.4762420654297	1191.522216796875	-965.0058593750002	-213.919418334961	1190.361694335938	-819.639343261719	-254.153060913086	1095.109985351563	-885.1651611328127	-437.5117187500001	892.6055297851565	-875.4283447265627	-142.0021362304688	999.5861816406252	-896.2342529296877	-147.4559936523438	1056.131103515625	-1052.7626953125	-211.5568389892579	920.407165527344	-1239.717529296875	-207.1133728027344	875.8013305664065	-1218.636108398438	-230.8198852539063	861.6019287109377	-1270.360107421875	-260.8629455566407	805.5349731445315	-1286.877807617188	-337.4857177734376	839.963073730469	-1304.629638671875	-449.5330810546876	709.4636230468751	-1074.874877929688	-402.7361450195314	656.0458984375001	-1096.484741210938	-447.016326904297	686.1801757812501	-998.915222167969	-132.2863311767578	1039.657104492188	-738.0783691406251	-173.1160888671875	912.0477294921877	-554.1165771484376	-186.0073394775391	866.6140747070315	-563.9156494140626	-198.5574951171876	867.4077758789065	-505.4407653808595	-234.0410766601563	808.2800292968752	-472.9738769531251	-305.2338867187501	849.3115844726565	-450.0437316894532	-424.9531250000001	692.1492919921876	-641.5074462890626	-376.4809265136719	638.7843017578126	-634.8504638671876	-414.7949523925782	695.4116821289064	-714.5616455078126	-434.024139404297	676.4866333007814	-985.9058837890627	-419.3354492187501	681.6704711914064	-743.7579956054689	-558.4717407226564	785.022399902344	-861.268737792969	-588.8766479492189	765.3621215820314	-885.9752197265627	-581.6814575195314	766.1245117187501	-828.7778930664065	-387.5823364257814	565.8468627929689	-1153.010620117188	-309.0921936035157	551.7200317382814	-1188.898803710938	-277.8903808593751	581.7235717773439	-1165.564575195313	-286.1620788574219	495.9070434570314	-1201.911743164063	-245.7830200195313	456.0412902832032	-1208.150146484375	-204.3406219482422	443.7545166015626	-1107.104736328125	-235.3861999511719	281.1931457519532	-1128.501098632813	-309.4612121582032	255.6128997802735	-1171.977783203125	-273.5391845703126	241.0110778808594	-1150.828491210938	-303.9997558593751	177.0075378417969	-1103.156860351563	-431.8299865722657	82.83805084228517	-1086.807861328125	-374.2368164062501	97.54923248291018	-1026.00732421875	-468.8211059570314	44.96185302734376	-1020.281494140625	-267.1496582031251	46.47544097900391	-1083.247436523438	-277.3227539062501	50.33649063110353	-1132.847900390625	-330.8089294433594	31.32984924316407	-1165.5947265625	-387.395721435547	548.6217651367189	-628.3535156250001	-324.1596679687501	542.6516113281251	-608.8526611328126	-301.7092285156251	568.9553222656251	-611.6182861328126	-279.8550720214844	467.776336669922	-607.7384033203126	-192.333480834961	411.7100219726564	-600.3857421875001	-171.7593994140625	414.6521606445314	-711.0018920898439	-212.1629028320313	252.9917755126954	-647.7578735351564	-326.5230102539063	221.9271697998047	-637.2594604492189	-283.1558837890626	203.6042633056641	-643.7403564453126	-292.5788879394532	157.1868438720703	-677.9888305664064	-414.8477478027345	88.57701873779298	-680.1392822265626	-367.0670471191407	86.5956268310547	-751.6613159179689	-464.3934326171876	41.29901504516602	-758.9318237304689	-262.7521057128907	46.40506744384766	-674.3724975585939	-280.7357788085938	52.83509826660158	-631.5440063476564	-336.9435119628907	36.03551864624024	-602.7331542968751	
758	3.785	-101.760238647461	1297.930786132813	-911.7244262695315	-229.4107360839844	1191.434326171875	-965.0014648437502	-213.7501525878907	1190.30078125	-819.6373291015627	-254.0588531494141	1095.067138671875	-885.1782836914065	-437.4786987304689	892.637634277344	-875.4666137695315	-141.9089965820313	999.5391235351565	-896.331481933594	-147.3327026367188	1056.010131835938	-1052.859619140625	-211.4703979492188	920.3267822265627	-1239.6875	-207.0565490722657	875.712341308594	-1218.643310546875	-230.762680053711	861.5014648437502	-1270.379272460938	-260.8911132812501	805.513610839844	-1286.927368164063	-337.4472045898438	839.9024047851565	-1304.683227539063	-449.5209045410157	709.4286499023439	-1074.945556640625	-402.7644958496095	656.0656738281251	-1096.530639648438	-446.9786987304689	686.1630859375001	-998.937927246094	-132.1910705566407	1039.533203125	-738.1318969726564	-173.0027313232422	911.9758300781252	-554.1466674804689	-185.9279479980469	866.452331542969	-563.9752807617189	-198.4687194824219	867.2955322265627	-505.4805908203126	-234.0036010742188	808.2254638671877	-473.0242309570314	-305.2512207031251	849.2676391601565	-450.076141357422	-424.9108886718751	692.1485595703126	-641.5678710937501	-376.4731140136719	638.7721557617189	-634.8646240234376	-414.7353820800782	695.4091796875001	-714.6558227539064	-433.9855957031251	676.4558715820314	-985.8933715820315	-419.3358459472657	681.6715698242189	-743.7580566406251	-558.4403686523439	784.7344360351565	-861.2530517578127	-588.8466796875001	765.3939208984376	-886.009704589844	-581.6657714843751	766.1096191406251	-828.8632812500002	-387.5484619140626	565.8189086914064	-1153.0712890625	-309.0710754394532	551.7007446289064	-1188.972045898438	-277.9103088378907	581.7257080078126	-1165.613037109375	-286.1873779296876	495.8567810058595	-1201.941772460938	-245.7046203613282	456.027557373047	-1208.20458984375	-204.2660064697266	443.7844238281251	-1107.079956054688	-235.4073791503907	281.1932373046876	-1128.515625	-309.5083007812501	255.4969787597657	-1171.938232421875	-273.5126342773438	240.9845428466797	-1150.839111328125	-303.9874572753907	176.9545135498047	-1103.143432617188	-431.6443786621095	82.51786041259767	-1086.978515625	-374.2974853515626	97.61392974853518	-1026.023803710938	-468.917694091797	44.97905731201173	-1020.263610839844	-267.0129089355469	46.57764434814454	-1083.233642578125	-277.2513427734376	50.38885879516603	-1132.868774414063	-330.7712402343751	31.30877876281739	-1165.585571289063	-387.3857421875001	548.6414184570314	-628.3460083007814	-324.1760864257813	542.6981811523439	-608.8728027343751	-301.7318725585938	568.9639282226564	-611.7105102539064	-279.8358764648438	467.7595214843751	-607.8015136718751	-192.4302062988282	411.5050048828126	-600.5114135742189	-171.8453826904297	414.6070861816407	-710.9637451171876	-212.1603393554688	252.9924621582032	-647.7659912109376	-326.4843750000001	221.9234771728516	-637.2542114257814	-283.2125244140626	203.5588073730469	-643.7459106445314	-292.5866088867188	157.2021484375	-677.9877929687501	-414.8777160644532	88.57958984375001	-680.1458740234376	-367.0104064941407	86.61372375488283	-751.6414794921876	-464.371795654297	41.38994598388673	-758.9677124023439	-262.7138366699219	46.45640945434571	-674.4111938476564	-280.6784057617188	52.8294143676758	-631.5488281250001	-336.9642944335938	36.04552078247071	-602.7224121093751	
759	3.79	-101.6331329345703	1297.892700195313	-911.786804199219	-229.3860778808594	1191.36328125	-964.9564208984377	-213.6196899414063	1190.184326171875	-819.584899902344	-253.9907989501954	1095.054077148438	-885.2337036132815	-437.3956298828126	892.6717529296877	-875.4858398437502	-141.7753143310547	999.4643554687502	-896.3052978515627	-147.2211303710938	1055.98681640625	-1052.944213867188	-211.4399414062501	920.2469482421877	-1239.664672851563	-207.0404510498047	875.641540527344	-1218.650146484375	-230.9044494628907	861.4212646484377	-1270.204833984375	-260.8627624511719	805.3770141601565	-1286.971801757813	-337.3258972167969	839.8303833007815	-1304.711791992188	-449.4877929687501	709.4033813476564	-1075.018920898438	-402.4708251953126	655.7183227539064	-1096.54296875	-446.9090881347657	686.1735229492189	-999.0236816406252	-132.0428771972657	1039.464111328125	-738.1447753906251	-172.9105377197266	911.832702636719	-554.1384887695314	-185.8803863525391	866.3839111328127	-564.0539550781251	-198.3968353271485	867.1927490234377	-505.5628662109376	-233.9596557617188	808.1425781250002	-473.0791015625001	-305.1434631347657	849.2244873046877	-450.1224365234376	-424.9276123046876	692.1468505859376	-641.6298828125001	-376.4922790527344	638.7473144531251	-634.9122314453126	-413.3771362304689	694.8405761718751	-714.9179687500001	-434.0022277832032	676.4650878906251	-986.0329589843752	-419.2879943847657	681.6817626953126	-743.8480834960939	-558.4484863281251	784.7352294921877	-861.2915039062502	-588.7748413085939	765.3521118164064	-886.1611938476565	-581.7027587890626	766.1665649414064	-828.9230957031252	-387.565643310547	565.8133544921876	-1153.1201171875	-309.0501098632813	551.6187744140626	-1188.974365234375	-277.8643188476563	581.6734008789064	-1165.61962890625	-286.1459960937501	495.8752746582032	-1201.929931640625	-245.6222534179688	455.9556884765626	-1208.274169921875	-204.1571044921876	443.7593078613282	-1107.047607421875	-235.3607025146485	281.1830444335938	-1128.585693359375	-309.4789123535157	255.4794616699219	-1171.939819335938	-273.2589416503907	241.5444641113282	-1150.636596679688	-303.9725036621094	176.9429168701172	-1103.138671875	-431.7482299804689	82.82309722900392	-1086.805908203125	-374.2865905761719	97.52770996093753	-1025.99951171875	-468.8743286132814	44.96101760864259	-1020.296081542969	-267.0897827148438	46.53125000000001	-1083.33154296875	-277.2834777832032	50.2879104614258	-1132.853393554688	-330.7683410644532	31.29052162170411	-1165.602172851563	-387.4466247558595	548.6626586914064	-628.4178466796876	-324.1523437500001	542.7349243164064	-608.8557739257814	-301.7487487792969	568.9284667968751	-611.8275756835939	-279.8727416992188	467.7669372558595	-607.8225097656251	-192.4658508300782	411.5668029785157	-600.5863037109376	-171.7251739501953	414.7148437500001	-711.1671752929689	-212.1453552246094	253.0342712402344	-647.8214721679689	-326.5183410644532	221.9583435058594	-637.3337402343751	-283.1645812988282	203.587387084961	-643.7777709960939	-292.5727844238282	157.1950073242188	-677.9752197265626	-414.8773498535157	88.59495544433595	-680.1347045898439	-367.0450744628907	86.59755706787111	-751.6580200195314	-464.4166870117189	41.3327980041504	-758.9549560546876	-262.7050781250001	46.42857360839844	-674.3942260742189	-280.7103576660157	52.85395431518556	-631.5076293945314	-336.9538269042969	36.04892349243165	-602.7585449218751	
